HIERARCHY
ROOT SimulationBone
{
	OFFSET 0.000000 0.000000 0.000000
	CHANNELS 6 Xposition Yposition Zposition Zrotation Yrotation Xrotation 
	JOINT Hips
	{
		OFFSET 0.000000 0.000000 0.000000
		CHANNELS 6 Xposition Yposition Zposition Zrotation Yrotation Xrotation 
		JOINT LeftUpLeg
		{
			OFFSET 0.103458 1.857842 10.548504
			CHANNELS 3 Zrotation Yrotation Xrotation
			JOINT LeftLeg
			{
				OFFSET 43.500000 -0.000038 0.000000
				CHANNELS 3 Zrotation Yrotation Xrotation
				JOINT LeftFoot
				{
					OFFSET 42.372200 0.000008 0.000004
					CHANNELS 3 Zrotation Yrotation Xrotation
					JOINT LeftToe
					{
						OFFSET 17.299992 -0.000003 -0.000013
						CHANNELS 3 Zrotation Yrotation Xrotation
						End Site
						{
							OFFSET 0.000000 0.000000 0.000000
						}
					}
				}
			}
		}
		JOINT RightUpLeg
		{
			OFFSET 0.103456 1.857816 -10.548503
			CHANNELS 3 Zrotation Yrotation Xrotation
			JOINT RightLeg
			{
				OFFSET 43.500042 -0.000023 0.000008
				CHANNELS 3 Zrotation Yrotation Xrotation
				JOINT RightFoot
				{
					OFFSET 42.372265 -0.000008 0.000010
					CHANNELS 3 Zrotation Yrotation Xrotation
					JOINT RightToe
					{
						OFFSET 17.300022 0.000005 0.000000
						CHANNELS 3 Zrotation Yrotation Xrotation
						End Site
						{
							OFFSET 0.000000 0.000000 0.000000
						}
					}
				}
			}
		}
		JOINT Spine
		{
			OFFSET 6.901966 -2.603735 -0.000002
			CHANNELS 3 Zrotation Yrotation Xrotation
			JOINT Spine1
			{
				OFFSET 12.588103 0.000016 0.000000
				CHANNELS 3 Zrotation Yrotation Xrotation
				JOINT Spine2
				{
					OFFSET 12.343200 0.000002 -0.000002
					CHANNELS 3 Zrotation Yrotation Xrotation
					JOINT Neck
					{
						OFFSET 25.832891 -0.000029 0.000006
						CHANNELS 3 Zrotation Yrotation Xrotation
						JOINT Head
						{
							OFFSET 11.766613 0.000029 -0.000002
							CHANNELS 3 Zrotation Yrotation Xrotation
							End Site
							{
								OFFSET 0.000000 0.000000 0.000000
							}
						}
					}
					JOINT LeftShoulder
					{
						OFFSET 19.745903 -1.480385 6.000109
						CHANNELS 3 Zrotation Yrotation Xrotation
						JOINT LeftArm
						{
							OFFSET 11.284124 -0.000024 -0.000022
							CHANNELS 3 Zrotation Yrotation Xrotation
							JOINT LeftForeArm
							{
								OFFSET 33.000057 0.000000 0.000033
								CHANNELS 3 Zrotation Yrotation Xrotation
								JOINT LeftHand
								{
									OFFSET 25.199997 0.000045 -0.000004
									CHANNELS 3 Zrotation Yrotation Xrotation
									End Site
									{
										OFFSET 0.000000 0.000000 0.000000
									}
								}
							}
						}
					}
					JOINT RightShoulder
					{
						OFFSET 19.746105 -1.480396 -6.000069
						CHANNELS 3 Zrotation Yrotation Xrotation
						JOINT RightArm
						{
							OFFSET 11.284142 -0.000028 -0.000010
							CHANNELS 3 Zrotation Yrotation Xrotation
							JOINT RightForeArm
							{
								OFFSET 33.000084 0.000033 0.000011
								CHANNELS 3 Zrotation Yrotation Xrotation
								JOINT RightHand
								{
									OFFSET 25.199783 0.000119 0.000426
									CHANNELS 3 Zrotation Yrotation Xrotation
									End Site
									{
										OFFSET 0.000000 0.000000 0.000000
									}
								}
							}
						}
					}
				}
			}
		}
	}
}
MOTION
Frames: 9
Frame Time: 0.033333
-94.484785 0.000000 614.645628 0.000000 5.652440 0.000000 0.740613 91.434143 -0.124864 97.608006 0.298501 -178.459074 164.178159 -7.772202 173.427915 -61.170655 -4.595373 3.584972 79.017700 -3.274711 -3.431597 21.454545 0.003093 -0.000001 179.192458 -1.755203 -178.401044 -24.728002 2.046251 0.173681 86.400425 -0.707579 -2.854645 21.454555 -0.003108 -0.000017 9.148693 0.793878 0.273019 8.289427 1.566108 0.602192 7.971217 1.569853 0.592728 19.950276 6.208577 8.178384 -20.326448 -13.008360 13.794994 -169.639195 -81.852686 -12.061027 -10.344789 63.122307 41.628480 -34.881394 -17.757585 1.510528 3.268816 -14.083259 0.569717 163.225293 74.312492 -15.767379 -11.097842 -53.800594 -34.634185 -34.998565 19.402332 -1.646069 5.248071 11.437843 -4.501196 
-92.039808 0.000000 614.378766 0.000000 5.699693 0.000000 0.729857 91.332451 -0.031658 97.599950 0.558123 -178.254714 162.754829 -7.562502 173.356321 -54.352610 -4.752747 2.747381 80.749358 -2.531564 -3.076325 21.454553 0.003094 -0.000002 -178.989793 -2.025803 -177.915076 -24.366159 2.114095 0.052499 87.329972 -0.618837 -2.935352 21.454560 -0.003107 -0.000017 9.108990 0.847059 0.303163 8.210862 1.670424 0.665655 7.892646 1.674552 0.655560 20.111308 5.768321 8.083617 -20.352309 -12.839682 13.633049 -169.278821 -81.521170 -12.425757 -10.329077 63.065397 41.656992 -35.145667 -17.958297 1.529601 3.367422 -13.945321 0.829892 161.904034 74.421202 -17.112769 -10.820841 -53.722983 -35.170485 -35.995387 19.534498 -1.678445 4.922012 11.255032 -4.844550 
-89.580235 0.000000 614.043829 0.000000 5.738147 0.000000 0.774752 91.085381 0.072570 97.599397 1.070395 -178.084630 161.737882 -7.410203 172.882606 -46.644082 -4.167363 1.917510 80.861920 -1.912371 -2.875183 21.454558 0.003085 0.000002 -177.193631 -2.507095 -177.545768 -24.145660 2.234450 -0.060639 88.340007 -0.528302 -2.983248 21.454558 -0.003109 -0.000018 9.065291 0.933331 0.344830 8.124846 1.840106 0.754345 7.806596 1.844765 0.743222 20.234548 5.633028 8.078592 -20.419554 -12.865542 13.645717 -168.931779 -81.262346 -12.777354 -10.165844 63.023938 41.873622 -35.331954 -17.986677 1.535783 3.040525 -13.928522 1.466931 160.715649 74.336787 -18.330810 -10.601998 -53.420590 -35.687346 -36.931919 19.514981 -1.700244 4.575077 11.100583 -5.039175 
-87.091354 0.000000 613.635246 0.000000 5.781291 0.000000 0.816717 90.879242 0.204779 97.576876 1.488170 -178.049516 161.102033 -7.216200 172.276536 -38.392510 -3.437257 0.971568 79.616776 -1.492968 -3.630146 21.454551 0.003097 -0.000001 -175.190022 -2.896805 -177.137842 -23.490872 2.231347 -0.283159 89.091485 -0.358305 -2.976039 21.454560 -0.003108 -0.000017 9.029689 0.982699 0.419075 8.055355 1.933815 0.905565 7.737083 1.939382 0.893876 20.131393 5.797813 8.053464 -20.415461 -12.978382 13.663750 -168.962228 -81.284674 -12.746549 -10.184094 63.154518 41.939592 -35.480217 -17.869834 1.534208 2.797656 -14.339260 2.159778 161.062704 74.116268 -17.986671 -10.900412 -52.869732 -36.055145 -37.766144 19.425429 -1.715466 4.421461 10.924229 -5.116440 
-84.556441 0.000000 613.155391 0.000000 5.840932 0.000000 0.880441 90.535751 0.381501 97.512082 2.137530 -178.078962 160.651541 -7.075807 172.003233 -30.396292 -2.870285 -0.598652 78.729234 -0.350764 -3.340632 21.454557 0.003089 0.000000 -173.231083 -3.499298 -176.693975 -22.938885 2.167565 -0.587862 89.903253 -0.127739 -2.945898 21.454557 -0.003108 -0.000017 8.982905 1.075482 0.511078 7.964410 2.113218 1.095036 7.646135 2.119929 1.082258 19.929020 5.718967 7.977374 -20.408824 -12.810471 13.524171 -168.397522 -81.296853 -13.319111 -10.396362 63.355537 41.979032 -35.471737 -17.797921 1.529219 2.800064 -14.806914 2.490528 162.181612 74.127551 -16.842550 -11.651598 -52.505242 -36.199074 -38.415835 19.403224 -1.730729 4.412544 10.670070 -5.040903 
-81.962088 0.000000 612.597921 0.000000 5.924832 0.000000 0.877240 90.249939 0.587996 97.416597 2.590722 -178.376820 160.257794 -6.953598 172.251620 -22.970247 -2.901261 -2.319310 76.836493 0.892223 -3.063346 21.454553 0.003091 0.000001 -171.048564 -3.857894 -176.567207 -21.868440 2.120857 -0.872511 90.497288 0.086408 -2.892459 21.454557 -0.003107 -0.000017 8.939469 1.128692 0.582972 7.879579 2.215056 1.241554 7.561309 2.222650 1.228156 19.779265 5.496958 7.977325 -20.416072 -12.593801 13.448301 -166.180292 -81.061300 -15.568187 -10.678823 63.563557 42.002484 -35.336397 -17.797760 1.523694 2.733900 -15.213032 2.686482 162.701923 74.343693 -16.300969 -12.627649 -52.462663 -36.035678 -38.916201 19.545302 -1.753034 4.290027 10.386194 -4.886973 
-79.314243 0.000000 611.969822 0.000000 6.038262 0.000000 0.828858 89.801277 0.789473 97.262084 3.127297 -178.754527 159.984750 -7.039703 173.488567 -16.537527 -3.151826 -4.054871 76.751478 1.978629 -3.606210 21.454548 0.003088 0.000000 -169.097466 -4.207002 -176.686680 -21.208863 2.138781 -1.078754 91.355385 0.256360 -2.807038 21.454557 -0.003108 -0.000017 8.881268 1.173293 0.660215 7.765288 2.299641 1.397817 7.447016 2.308177 1.383907 19.890916 5.390126 7.954221 -20.765945 -12.376810 13.382496 -165.025116 -80.973785 -16.740387 -10.472220 63.789500 42.221583 -35.200029 -17.759441 1.518029 2.491094 -15.736319 2.853825 163.265099 74.190867 -15.732070 -13.283754 -52.246340 -35.747950 -39.484381 19.714337 -1.779099 4.114822 10.378517 -4.618283 
-76.613279 0.000000 611.278555 0.000000 6.184045 0.000000 0.723321 89.293907 0.972011 97.056366 3.579510 -179.259812 159.395742 -7.130493 174.683741 -12.115072 -3.000776 -4.856294 76.633425 2.475103 -3.843119 21.454551 0.003092 0.000001 -167.388457 -4.390794 -177.070837 -20.942636 2.168144 -1.186754 92.243726 0.367182 -2.669167 21.454557 -0.003109 -0.000017 8.832845 1.178926 0.715160 7.669585 2.307877 1.507042 7.351316 2.317071 1.493080 19.909195 5.215153 7.939881 -21.131803 -12.133198 13.320602 -163.898818 -80.680565 -17.885192 -9.978046 63.735692 42.384862 -35.128489 -17.587973 1.505304 2.503541 -16.112044 3.158564 163.433408 73.823362 -15.576207 -13.768324 -51.964233 -35.174381 -40.240828 19.824047 -1.806641 4.114251 10.573958 -4.567132 
-73.864284 0.000000 610.536899 0.000000 6.365719 0.000000 0.627091 88.684891 1.144483 96.886757 4.089860 -179.916347 158.225963 -7.385192 175.800477 -10.521889 -2.842900 -5.603356 77.660842 2.873510 -4.427872 21.454545 0.003089 0.000000 -165.915253 -4.530000 -177.193753 -21.336871 2.031821 -1.519223 93.156786 0.635617 -2.488340 21.454555 -0.003108 -0.000017 8.805395 1.169400 0.803963 7.616255 2.283382 1.683330 7.298023 2.293641 1.669514 19.868296 5.161047 7.891387 -21.295246 -11.960559 13.222727 -164.397626 -80.521530 -17.379982 -9.500238 63.634830 42.772076 -34.506969 -17.536726 1.487697 2.741496 -16.244020 2.332389 163.005279 73.701928 -16.019490 -14.197473 -52.172076 -34.704335 -40.673746 20.183677 -1.842010 4.034840 10.691745 -4.465988 
